<svg xmlns="http://www.w3.org/2000/svg" xmlns:xlink="http://www.w3.org/1999/xlink" width="196" height="98" viewBox="0 0 196 98">
  <defs>
    <filter id="Rectangle_95" x="0" y="0" width="196" height="98" filterUnits="userSpaceOnUse">
      <feOffset input="SourceAlpha"/>
      <feGaussianBlur stdDeviation="10" result="blur"/>
      <feFlood flood-opacity="0.2"/>
      <feComposite operator="in" in2="blur"/>
      <feComposite in="SourceGraphic"/>
    </filter>
  </defs>
  <g id="Footer_top_logo" data-name="Footer top logo" transform="translate(-96 -6644)">
    <g transform="matrix(1, 0, 0, 1, 96, 6644)" filter="url(#Rectangle_95)">
      <rect id="Rectangle_95-2" data-name="Rectangle 95" width="136" height="38" rx="5" transform="translate(30 30)" fill="#e6f4f5"/>
    </g>
    <g id="Group_36" data-name="Group 36" transform="translate(141.221 6683.55)">
      <g id="logoo" transform="translate(0 0)">
        <rect id="Rectangle_51" data-name="Rectangle 51" width="3.102" height="2.964" transform="translate(14.377)" fill="#0d4a5a"/>
        <rect id="Rectangle_52" data-name="Rectangle 52" width="3.717" height="2.591" transform="translate(22.234 4.411)" fill="#0d4a5a"/>
        <rect id="Rectangle_53" data-name="Rectangle 53" width="3.102" height="12.591" transform="translate(14.377 4.411)" fill="#0d4a5a"/>
        <rect id="Rectangle_54" data-name="Rectangle 54" width="3.102" height="9.999" transform="translate(19.132 7.002)" fill="#0d4a5a"/>
        <path id="Path_2" data-name="Path 2" d="M319.713,498.138c-2.435,0-3.333-.873-3.333-2.942v-7.167h0v-2.6h0V481.94h3.1v3.493h2.825v2.6h-2.823V494.3c0,.942.252,1.1,1.263,1.1.6,0,1.286-.046,1.286-.046v2.619A16.39,16.39,0,0,1,319.713,498.138Z" transform="translate(-288.774 -481.021)" fill="#0d4a5a"/>
        <path id="Path_3" data-name="Path 3" d="M392.52,526.005v-1.19a4.845,4.845,0,0,1-3.607,1.355,4.054,4.054,0,0,1-4.273-4.3V513.42h3.1v7.857c0,1.607.828,2.366,2.16,2.366,1.746,0,2.555-1.241,2.555-2.8V513.42h3.1v12.585Z" transform="translate(-349.451 -509.004)" fill="#0d4a5a"/>
        <path id="Path_4" data-name="Path 4" d="M631.23,490.706v-17h3.1v17Z" transform="translate(-568.648 -473.706)" fill="#0d4a5a"/>
        <path id="Path_5" data-name="Path 5" d="M674.24,518.345c0-4.272,2.527-6.455,6.043-6.455s6.039,2.187,6.039,6.455-2.527,6.456-6.042,6.456S674.24,522.623,674.24,518.345Zm3.17,0c0,2.757,1.241,3.888,2.873,3.888s2.872-1.126,2.872-3.888-1.241-3.882-2.872-3.882S677.41,515.594,677.41,518.345Z" transform="translate(-606.88 -507.644)" fill="#0d4a5a"/>
        <path id="Path_6" data-name="Path 6" d="M801.1,513.193a5.448,5.448,0,0,1,8.2,1.447,7.5,7.5,0,0,1,.735,3.424c0,3.629-1.654,6.776-5.835,6.776a4.227,4.227,0,0,1-3.1-1.08v5.332H798v-17h3.1Zm2.964,1.31a2.729,2.729,0,0,0-2.228.919,4.57,4.57,0,0,0-.735,2.918,5.634,5.634,0,0,0,.413,2.688,2.446,2.446,0,0,0,2.275,1.222c2.3,0,3.078-1.792,3.078-4.044C806.87,516.617,806.479,514.5,804.068,514.5Z" transform="translate(-716.892 -507.68)" fill="#0d4a5a"/>
        <path id="Path_7" data-name="Path 7" d="M924.412,514.242c-.851,0-2.045.252-2.045,1.286a1.062,1.062,0,0,0,.873,1.011c1.241.368,3.469.368,5.031,1.172a3.062,3.062,0,0,1,1.746,2.964c0,1.906-1.241,4.158-5.675,4.158-5.123,0-5.332-3.515-5.332-4.158h3.056c0,1.286,1.149,1.768,2.482,1.768,1.7,0,2.319-.667,2.319-1.471,0-.964-1.222-1.149-2.642-1.333a14.378,14.378,0,0,1-2.205-.413,3.366,3.366,0,0,1-2.757-3.469c0-2.555,2.343-3.837,5.238-3.837,4.733,0,5.17,2.94,5.17,3.859h-3.054C926.617,514.769,925.744,514.242,924.412,514.242Z" transform="translate(-824.46 -507.671)" fill="#0d4a5a"/>
        <path id="Path_8" data-name="Path 8" d="M71.32,525.969,67.87,513.38h3.184l3.2,11.784,3.222-11.784h3.136l-3.423,12.589Z" transform="translate(-67.87 -508.969)" fill="#0d4a5a"/>
        <path id="Path_9" data-name="Path 9" d="M497.76,518.852c0-3.574,2.271-6.392,6.053-6.392a4.361,4.361,0,0,1,3.809,1.957v-1.855h2.844v12.589h-2.844v-1.865a4.677,4.677,0,0,1-3.888,1.956C499.822,525.243,497.76,522.426,497.76,518.852Zm10,0c0-2.087-1.174-3.861-3.6-3.861-2.222,0-3.548,1.644-3.548,3.861s1.333,3.861,3.548,3.861c2.421,0,3.595-1.775,3.595-3.861Z" transform="translate(-450.005 -508.151)" fill="#0d4a5a"/>
      </g>
    </g>
  </g>
</svg>
