<?xml version="1.0" encoding="utf-8"?>
<!-- Generator: Adobe Illustrator 24.0.1, SVG Export Plug-In . SVG Version: 6.00 Build 0)  -->
<svg version="1.1" id="Layer_1" xmlns="http://www.w3.org/2000/svg" xmlns:xlink="http://www.w3.org/1999/xlink" x="0px" y="0px"
	 viewBox="0 0 91.9 91.9" style="enable-background:new 0 0 91.9 91.9;" xml:space="preserve">
<style type="text/css">
	.st0{fill:#3F94AB;}
</style>
<g>
	<g>
		<path class="st0" d="M70.9,26.7c-0.6-1.5-1.3-2.5-2.4-3.7c-1.1-1.1-2.2-1.8-3.7-2.4c-1.1-0.4-2.8-1-5.9-1.1
			c-3.4-0.2-4.4-0.2-12.9-0.2c-8.5,0-9.5,0-12.9,0.2c-3.1,0.1-4.8,0.7-5.9,1.1c-1.5,0.6-2.6,1.3-3.7,2.4c-1.1,1.1-1.8,2.2-2.4,3.7
			c-0.4,1.1-1,2.8-1.1,5.9c-0.2,3.4-0.2,4.4-0.2,12.8c0,8.5,0,9.5,0.2,12.8c0.1,3.1,0.7,4.8,1.1,5.9c0.6,1.5,1.3,2.5,2.4,3.7
			c1.1,1.1,2.2,1.8,3.7,2.4c1.1,0.4,2.8,1,5.9,1.1c3.4,0.2,4.4,0.2,12.9,0.2c8.5,0,9.5,0,12.9-0.2c3.1-0.1,4.8-0.7,5.9-1.1
			c1.5-0.6,2.6-1.3,3.7-2.4c1.1-1.1,1.8-2.2,2.4-3.7c0.4-1.1,1-2.8,1.1-5.9c0.2-3.4,0.2-4.4,0.2-12.8c0-8.5,0-9.5-0.2-12.8
			C71.8,29.5,71.3,27.8,70.9,26.7z M45.9,61.8c-9.1,0-16.4-7.3-16.4-16.3c0-9,7.4-16.3,16.4-16.3c9.1,0,16.4,7.3,16.4,16.3
			C62.4,54.4,55,61.8,45.9,61.8z M63,32.3c-2.1,0-3.8-1.7-3.8-3.8c0-2.1,1.7-3.8,3.8-3.8c2.1,0,3.8,1.7,3.8,3.8
			C66.8,30.6,65.1,32.3,63,32.3z"/>
		<path class="st0" d="M-2-2v95.9h95.9V-2H-2z M77.7,58.5c-0.2,3.4-0.7,5.7-1.5,7.7c-0.8,2.1-1.9,3.9-3.7,5.6
			c-1.8,1.8-3.6,2.9-5.7,3.7c-2,0.8-4.4,1.3-7.8,1.5c-3.4,0.2-4.5,0.2-13.2,0.2c-8.7,0-9.8,0-13.2-0.2c-3.4-0.2-5.7-0.7-7.8-1.5
			c-2.1-0.8-3.9-1.9-5.7-3.7c-1.8-1.8-2.9-3.5-3.7-5.6c-0.8-2-1.3-4.3-1.5-7.7C14,55.1,14,54.1,14,45.4c0-8.6,0-9.7,0.2-13.1
			c0.2-3.4,0.7-5.7,1.5-7.7c0.8-2.1,1.9-3.9,3.7-5.6c1.8-1.8,3.6-2.9,5.7-3.7c2-0.8,4.4-1.3,7.8-1.5c3.4-0.2,4.5-0.2,13.2-0.2
			c8.7,0,9.8,0,13.2,0.2c3.4,0.2,5.7,0.7,7.8,1.5c2.1,0.8,3.9,1.9,5.7,3.7c1.8,1.8,2.9,3.5,3.7,5.6c0.8,2,1.3,4.3,1.5,7.7
			c0.2,3.4,0.2,4.5,0.2,13.1C77.9,54.1,77.9,55.1,77.7,58.5z"/>
		<path class="st0" d="M45.9,34.8c-5.9,0-10.7,4.7-10.7,10.6C35.3,51.3,40,56,45.9,56c5.9,0,10.7-4.7,10.7-10.6
			C56.6,39.6,51.8,34.8,45.9,34.8z"/>
	</g>
</g>
</svg>
