<?xml version="1.0" encoding="utf-8"?>
<!-- Generator: Adobe Illustrator 24.0.1, SVG Export Plug-In . SVG Version: 6.00 Build 0)  -->
<svg version="1.1" id="Layer_1" xmlns="http://www.w3.org/2000/svg" xmlns:xlink="http://www.w3.org/1999/xlink" x="0px" y="0px"
	 viewBox="0 0 91.9 91.9" style="enable-background:new 0 0 91.9 91.9;" xml:space="preserve">
<style type="text/css">
	.st0{fill:#3F94AB;}
</style>
<path class="st0" d="M-2-2v95.9h95.9V-2H-2z M30.2,71.3H18.3V33.2h11.8V71.3z M24.2,28c-3.8,0-6.9-3.1-6.9-6.9
	c0-3.8,3.1-6.9,6.9-6.9c3.8,0,6.9,3.1,6.9,6.9C31.1,24.9,28,28,24.2,28z M74.5,71.3H62.7V52.8c0-4.4-0.1-10.1-6.2-10.1
	c-6.2,0-7.1,4.8-7.1,9.8v18.8H37.6V33.2h11.3v5.2h0.2c1.6-3,5.4-6.1,11.2-6.1c12,0,14.2,7.9,14.2,18.1V71.3z"/>
</svg>
