<svg xmlns="http://www.w3.org/2000/svg" width="87.743" height="17.799" viewBox="0 0 87.743 17.799">
  <g id="Group_19" data-name="Group 19" transform="translate(0)">
    <g id="logoo" transform="translate(0 0)">
      <rect id="Rectangle_51" data-name="Rectangle 51" width="2.618" height="2.501" transform="translate(12.134)" fill="#fff"/>
      <rect id="Rectangle_52" data-name="Rectangle 52" width="3.137" height="2.186" transform="translate(18.471 3.659)" fill="#fff"/>
      <rect id="Rectangle_53" data-name="Rectangle 53" width="2.618" height="10.353" transform="translate(12.134 3.723)" fill="#fff"/>
      <rect id="Rectangle_54" data-name="Rectangle 54" width="2.618" height="8.439" transform="translate(15.896 5.742)" fill="#fff"/>
      <path id="Path_2" data-name="Path 2" d="M319.193,495.61c-2.055,0-2.813-.737-2.813-2.483v-6.049h0v-2.191h0V481.94H319v2.948h2.384v2.191H319v5.293c0,.8.213.93,1.066.93.5,0,1.086-.038,1.086-.038v2.211A13.829,13.829,0,0,1,319.193,495.61Z" transform="translate(-293.454 -481.165)" fill="#fff"/>
      <path id="Path_3" data-name="Path 3" d="M391.291,523.772v-.979a4.143,4.143,0,0,1-3.044,1.115,3.377,3.377,0,0,1-3.607-3.534V513.42h2.618v6.463a1.7,1.7,0,0,0,1.823,1.946,2.066,2.066,0,0,0,2.156-2.306v-6.1h2.618v10.352Z" transform="translate(-355.442 -509.693)" fill="#fff"/>
      <path id="Path_4" data-name="Path 4" d="M631.23,488.055V473.71h2.618v14.345Z" transform="translate(-579.234 -473.706)" fill="#fff"/>
      <path id="Path_5" data-name="Path 5" d="M674.24,517.2c0-3.516,2.133-5.312,5.1-5.312s5.1,1.8,5.1,5.312-2.133,5.313-5.1,5.313S674.24,520.722,674.24,517.2Zm2.676,0c0,2.269,1.047,3.2,2.424,3.2s2.424-.927,2.424-3.2-1.047-3.195-2.424-3.195S676.916,514.938,676.916,517.2Z" transform="translate(-618.36 -508.307)" fill="#fff"/>
      <path id="Path_6" data-name="Path 6" d="M800.62,513a4.6,4.6,0,0,1,6.92,1.222,6.327,6.327,0,0,1,.621,2.889c0,3.063-1.4,5.719-4.925,5.719a3.568,3.568,0,0,1-2.618-.911v4.5H798V512.071h2.618Zm2.5,1.105a2.3,2.3,0,0,0-1.881.775,3.856,3.856,0,0,0-.621,2.463,4.754,4.754,0,0,0,.349,2.269,2.065,2.065,0,0,0,1.92,1.031c1.939,0,2.6-1.512,2.6-3.413C805.486,515.886,805.156,514.1,803.121,514.1Z" transform="translate(-730.893 -508.616)" fill="#fff"/>
      <path id="Path_7" data-name="Path 7" d="M923.569,513.83c-.718,0-1.726.208-1.726,1.059a.88.88,0,0,0,.737.832c1.047.3,2.928.3,4.246.964a2.513,2.513,0,0,1,1.474,2.439c0,1.568-1.047,3.421-4.79,3.421-4.324,0-4.5-2.892-4.5-3.421h2.579c0,1.058.969,1.455,2.095,1.455,1.434,0,1.958-.549,1.958-1.21,0-.793-1.031-.945-2.229-1.1a12.419,12.419,0,0,1-1.861-.34,2.789,2.789,0,0,1-2.327-2.855c0-2.1,1.977-3.157,4.42-3.157,3.995,0,4.363,2.42,4.363,3.175H925.43C925.43,514.265,924.694,513.83,923.569,513.83Z" transform="translate(-840.557 -508.334)" fill="#fff"/>
      <path id="Path_8" data-name="Path 8" d="M70.782,523.732,67.87,513.38h2.687l2.7,9.69,2.719-9.69h2.647l-2.889,10.352Z" transform="translate(-67.87 -509.657)" fill="#fff"/>
      <path id="Path_9" data-name="Path 9" d="M497.76,517.718a4.943,4.943,0,0,1,5.109-5.258,3.709,3.709,0,0,1,3.215,1.61v-1.526h2.4V522.9h-2.4v-1.534a3.981,3.981,0,0,1-3.281,1.609C499.5,522.975,497.76,520.658,497.76,517.718Zm8.438,0a3.021,3.021,0,1,0-3.039,3.176,2.914,2.914,0,0,0,3.039-3.176Z" transform="translate(-458.148 -508.823)" fill="#fff"/>
    </g>
  </g>
</svg>
