<?xml version="1.0" encoding="utf-8"?>
<!-- Generator: Adobe Illustrator 24.0.1, SVG Export Plug-In . SVG Version: 6.00 Build 0)  -->
<svg version="1.1" id="Layer_1" xmlns="http://www.w3.org/2000/svg" xmlns:xlink="http://www.w3.org/1999/xlink" x="0px" y="0px"
	 viewBox="0 0 91.9 91.9" style="enable-background:new 0 0 91.9 91.9;" xml:space="preserve">
<style type="text/css">
	.st0{fill:#3F94AB;}
</style>
<path class="st0" d="M-2-2v95.9h95.9V-2H-2z M73.9,29.5c-1.3,1.5-2.7,2.9-4.2,4c-0.3,0.2-0.3,0.4-0.3,0.7c0.2,5-0.8,9.8-2.6,14.3
	c-1.4,3.5-3.4,6.8-5.9,9.7c-3.1,3.6-6.8,6.5-11.1,8.5c-2.7,1.3-5.5,2.1-8.4,2.6c-2.7,0.5-5.5,0.7-8.2,0.5c-2.7-0.1-5.3-0.5-7.9-1.3
	c-2.8-0.9-5.6-2-8.5-3.8c1.2,0,2.4,0.1,3.7,0c1.2-0.1,2.5-0.2,3.7-0.5c1.2-0.3,2.4-0.6,3.6-1c1.2-0.4,2.3-1,3.4-1.6
	c1.1-0.6,2.1-1.3,3.2-2.2c-5.6-0.4-9.3-3.1-11.4-8.3c0.3,0,0.5,0,0.7,0c1.4,0.2,2.8,0.1,4.2-0.2c0.1,0,0.2-0.1,0.5-0.2
	c-1.9-0.5-3.6-1.2-5-2.4c-1.4-1.1-2.6-2.5-3.4-4.2c-0.8-1.7-1.3-3.4-1.2-5.4c1.7,0.8,3.5,1.4,5.4,1.3c-0.9-0.8-1.9-1.5-2.6-2.5
	c-0.7-1-1.4-1.9-1.8-3.1c-0.4-1.1-0.8-2.3-0.8-3.5c0-1.2-0.1-2.4,0.2-3.5c0.3-1.2,0.7-2.3,1.3-3.5c3.2,3.8,6.9,6.8,11.2,9
	c4.3,2.2,11.9,4.1,13.9,3.5c0-0.3-0.1-0.6-0.1-1c-0.9-5.9,2.6-11.8,8.8-13.4c4.3-1.1,8.1-0.2,11.4,2.8c0,0,0.1,0.1,0.1,0.1
	c0.3,0.4,0.7,0.4,1.1,0.3c2.2-0.5,4.3-1.3,6.3-2.4c0.2-0.1,0.3-0.2,0.6-0.3c-0.9,2.9-2.8,4.9-5.1,6.5c2.3-0.2,4.5-0.8,6.7-1.7
	C74.8,28.4,74.3,29,73.9,29.5z"/>
</svg>
